<?xml version="1.0" encoding="UTF-8"?>
<svg id="_레이어_1" data-name="레이어 1" xmlns="http://www.w3.org/2000/svg" xmlns:xlink="http://www.w3.org/1999/xlink" viewBox="0 0 121.17 142.36">
  <defs>
    <style>
      .cls-1 {
        fill: url(#_무제_그라디언트_163-3);
      }

      .cls-1, .cls-2, .cls-3, .cls-4, .cls-5, .cls-6, .cls-7, .cls-8, .cls-9, .cls-10 {
        stroke-miterlimit: 10;
      }

      .cls-1, .cls-2, .cls-4, .cls-5, .cls-6, .cls-8, .cls-9, .cls-10 {
        stroke: #8a8a8a;
      }

      .cls-2 {
        fill: url(#_무제_그라디언트_163-4);
      }

      .cls-11 {
        fill: url(#_무제_그라디언트_167);
      }

      .cls-11, .cls-12, .cls-13, .cls-14, .cls-15, .cls-16, .cls-17, .cls-18, .cls-19, .cls-20, .cls-21, .cls-22, .cls-23, .cls-24 {
        stroke-width: 0px;
      }

      .cls-3 {
        stroke: #b1b1b1;
      }

      .cls-3, .cls-6, .cls-7 {
        fill: none;
      }

      .cls-3, .cls-7 {
        stroke-width: .77px;
      }

      .cls-4 {
        fill: url(#_무제_그라디언트_163);
      }

      .cls-5 {
        fill: silver;
      }

      .cls-12 {
        fill: #e6e6e6;
      }

      .cls-13 {
        fill: #e5e5e5;
      }

      .cls-14 {
        fill: url(#_무제_그라디언트_166);
      }

      .cls-15 {
        fill: #e9e9e9;
      }

      .cls-16 {
        fill: url(#_무제_그라디언트_161);
      }

      .cls-17 {
        fill: #868686;
      }

      .cls-18 {
        fill: #dadada;
      }

      .cls-19 {
        fill: #ededed;
      }

      .cls-20 {
        fill: url(#_무제_그라디언트_163-7);
      }

      .cls-7 {
        stroke: #b5b5b5;
      }

      .cls-21 {
        fill: url(#_무제_그라디언트_162);
      }

      .cls-8 {
        fill: url(#_무제_그라디언트_163-5);
      }

      .cls-22 {
        fill: url(#_무제_그라디언트_166-2);
      }

      .cls-23 {
        fill: url(#_무제_그라디언트_164);
      }

      .cls-9 {
        fill: url(#_무제_그라디언트_163-6);
      }

      .cls-24 {
        fill: url(#_무제_그라디언트_165);
      }

      .cls-10 {
        fill: url(#_무제_그라디언트_163-2);
      }
    </style>
    <linearGradient id="_무제_그라디언트_163" data-name="무제 그라디언트 163" x1="98.6" y1="43.77" x2="120.56" y2="43.77" gradientUnits="userSpaceOnUse">
      <stop offset="0" stop-color="#cfcfcf"/>
      <stop offset="1" stop-color="#f4f4f4"/>
    </linearGradient>
    <linearGradient id="_무제_그라디언트_163-2" data-name="무제 그라디언트 163" x1="87.2" y1="32.7" x2="120.67" y2="32.7" xlink:href="#_무제_그라디언트_163"/>
    <linearGradient id="_무제_그라디언트_163-3" data-name="무제 그라디언트 163" x1="65.9" y1="23.02" x2="115.8" y2="23.02" xlink:href="#_무제_그라디언트_163"/>
    <linearGradient id="_무제_그라디언트_163-4" data-name="무제 그라디언트 163" x1="5903.65" y1="43.77" x2="5925.61" y2="43.77" gradientTransform="translate(5926.23) rotate(-180) scale(1 -1)" xlink:href="#_무제_그라디언트_163"/>
    <linearGradient id="_무제_그라디언트_163-5" data-name="무제 그라디언트 163" x1="5892.25" y1="32.7" x2="5925.73" y2="32.7" gradientTransform="translate(5926.23) rotate(-180) scale(1 -1)" xlink:href="#_무제_그라디언트_163"/>
    <linearGradient id="_무제_그라디언트_163-6" data-name="무제 그라디언트 163" x1="5870.95" y1="23.02" x2="5920.86" y2="23.02" gradientTransform="translate(5926.23) rotate(-180) scale(1 -1)" xlink:href="#_무제_그라디언트_163"/>
    <linearGradient id="_무제_그라디언트_166" data-name="무제 그라디언트 166" x1="87.2" y1="104.38" x2="87.2" y2="44.64" gradientUnits="userSpaceOnUse">
      <stop offset="0" stop-color="#a7a7a7"/>
      <stop offset="1" stop-color="#8d8d8d"/>
    </linearGradient>
    <linearGradient id="_무제_그라디언트_167" data-name="무제 그라디언트 167" x1="60.85" y1="44.42" x2="111.24" y2="44.42" gradientUnits="userSpaceOnUse">
      <stop offset="0" stop-color="#8f8f8f"/>
      <stop offset="1" stop-color="#c2c2c2"/>
    </linearGradient>
    <linearGradient id="_무제_그라디언트_166-2" data-name="무제 그라디언트 166" x1="60.85" y1="104.43" x2="111.82" y2="104.43" xlink:href="#_무제_그라디언트_166"/>
    <linearGradient id="_무제_그라디언트_165" data-name="무제 그라디언트 165" x1="22.92" y1="64.94" x2="66.01" y2="39.74" gradientUnits="userSpaceOnUse">
      <stop offset="0" stop-color="#ededed"/>
      <stop offset="1" stop-color="#fff"/>
    </linearGradient>
    <linearGradient id="_무제_그라디언트_164" data-name="무제 그라디언트 164" x1="9.46" y1="104.42" x2="60.85" y2="104.42" gradientUnits="userSpaceOnUse">
      <stop offset="0" stop-color="#9b9b9b"/>
      <stop offset="1" stop-color="#d1d1d1"/>
    </linearGradient>
    <linearGradient id="_무제_그라디언트_163-7" data-name="무제 그라디언트 163" x1="34.48" x2="34.48" y2="103.4" xlink:href="#_무제_그라디언트_163"/>
    <linearGradient id="_무제_그라디언트_162" data-name="무제 그라디언트 162" x1="60.85" y1="51.9" x2="98.26" y2="51.9" gradientUnits="userSpaceOnUse">
      <stop offset="0" stop-color="#d2d2d2"/>
      <stop offset="1" stop-color="#f2f2f2"/>
    </linearGradient>
    <linearGradient id="_무제_그라디언트_161" data-name="무제 그라디언트 161" x1="23.73" y1="51.9" x2="60.85" y2="51.9" gradientUnits="userSpaceOnUse">
      <stop offset="0" stop-color="#eee"/>
      <stop offset="1" stop-color="#fff"/>
    </linearGradient>
  </defs>
  <path class="cls-5" d="m116.93,41.2c-1.87-3.51-4.67-6.52-8.22-8.57l-37.06-21.4c-3.28-1.89-7.01-2.89-10.8-2.89h0c-3.79,0-7.52,1-10.8,2.89L12.98,32.63c-3.22,1.86-5.84,4.51-7.69,7.61-1.98,3.3-3.1,7.12-3.1,11.09v47.55c0,2.68.53,5.29,1.47,7.72,1.75,4.55,4.99,8.47,9.33,10.98l37.06,21.4c3.28,1.89,7.01,2.89,10.8,2.89h0c3.78,0,7.52-1,10.8-2.89l37.07-21.4c3.98-2.3,7.03-5.8,8.87-9.88,1.23-2.74,1.93-5.73,1.93-8.82v-47.55c0-3.59-.93-7.05-2.57-10.13Z"/>
  <g>
    <path class="cls-4" d="m99.22,51.91s-2.57-5.13,2.67-8.13l5.24-2.99s7.06-3.64,10.37-6.52,5.67,10.48-2.57,13.9c-8.23,3.42-8.45,8.13-15.72,3.74Z"/>
    <path class="cls-10" d="m88.16,45.11s-3.91-7.82,4.07-12.39l7.99-4.56s10.76-5.54,15.81-9.94c5.05-4.4,8.64,15.97-3.91,21.19-12.55,5.22-12.88,12.39-23.96,5.7Z"/>
    <path class="cls-1" d="m67.32,41.52s-5.83-11.66,6.08-18.47l11.91-6.8s16.04-8.26,23.57-14.82c7.53-6.56,12.88,23.81-5.83,31.59s-19.2,18.47-35.72,8.51Z"/>
  </g>
  <g>
    <path class="cls-2" d="m21.95,51.91s2.57-5.13-2.67-8.13l-5.24-2.99s-7.06-3.64-10.37-6.52c-3.31-2.89-5.67,10.48,2.57,13.9,8.23,3.42,8.45,8.13,15.72,3.74Z"/>
    <path class="cls-8" d="m33.02,45.11s3.91-7.82-4.07-12.39l-7.99-4.56s-10.76-5.54-15.81-9.94C.09,13.81-3.49,34.19,9.06,39.4c12.55,5.22,12.88,12.39,23.96,5.7Z"/>
    <path class="cls-9" d="m53.85,41.52s5.83-11.66-6.08-18.47l-11.91-6.8S19.83,7.98,12.3,1.42C4.76-5.14-.58,25.24,18.13,33.01s19.2,18.47,35.72,8.51Z"/>
  </g>
  <g>
    <path class="cls-14" d="m60.85,73.76l50.97,30.62c1.11-2.46,1.73-5.15,1.73-7.92v-42.72c0-3.23-.84-6.33-2.31-9.1l-50.39,29.09v.03Z"/>
    <polygon class="cls-3" points="60.82 73.75 60.85 73.76 60.85 73.73 60.82 73.75"/>
    <path class="cls-11" d="m111.24,44.64c-1.68-3.16-4.2-5.86-7.39-7.7l-33.3-19.23c-2.95-1.7-6.3-2.6-9.7-2.6h0v58.62l50.39-29.09Z"/>
    <path class="cls-22" d="m60.85,73.76v61.33h0c3.4,0,6.75-.9,9.7-2.6l33.31-19.23c3.58-2.07,6.32-5.21,7.97-8.88l-50.97-30.62Z"/>
    <path class="cls-24" d="m60.85,73.73V15.11c-3.4,0-6.76.9-9.7,2.6l-33.31,19.23c-2.89,1.67-5.24,4.05-6.91,6.84l49.89,29.97h.03Z"/>
    <path class="cls-23" d="m60.82,73.75l-51.36,29.65c1.57,4.09,4.48,7.61,8.38,9.86l33.3,19.23c2.95,1.7,6.3,2.6,9.7,2.6v-61.33l-.03-.02Z"/>
    <path class="cls-20" d="m10.93,43.77c-1.78,2.97-2.79,6.4-2.79,9.97v42.72c0,2.41.48,4.75,1.32,6.94l51.36-29.65L10.93,43.77Z"/>
  </g>
  <path class="cls-17" d="m19.61,51.56v47.08c0,1.52.81,2.93,2.13,3.69l36.97,21.35c1.32.76,2.94.76,4.26,0l36.97-21.35c1.32-.76,2.13-2.17,2.13-3.69v-47.08c0-1.52-.81-2.93-2.13-3.69l-36.97-21.35c-1.32-.76-2.94-.76-4.26,0l-36.97,21.35c-1.32.76-2.13,2.17-2.13,3.69Z"/>
  <g>
    <path class="cls-13" d="m60.85,73.76l37.75,22.68v-42.7c0-.56-.14-1.1-.34-1.6l-37.41,21.6v.03Z"/>
    <path class="cls-21" d="m98.26,52.13c-.36-.93-1-1.74-1.88-2.25l-33.3-19.23c-.68-.39-1.44-.6-2.22-.6,0,0,0,0,0,0v43.67l37.41-21.6Z"/>
    <polygon class="cls-7" points="60.82 73.75 60.85 73.76 60.85 73.73 60.82 73.75"/>
    <path class="cls-18" d="m60.85,73.76v46.37s0,0,0,0c.78,0,1.55-.21,2.22-.6l33.3-19.23c1.37-.79,2.22-2.27,2.22-3.85v-.02l-37.75-22.68Z"/>
    <path class="cls-12" d="m60.82,73.75l-37.72,21.78v.93c0,1.58.85,3.06,2.22,3.85l33.3,19.23c.68.39,1.44.6,2.22.6v-46.37l-.03-.02Z"/>
    <path class="cls-15" d="m23.73,51.46c-.4.68-.64,1.46-.64,2.27v41.79l37.72-21.78-37.09-22.28Z"/>
    <path class="cls-16" d="m60.85,73.73V30.06c-.78,0-1.55.21-2.22.6l-33.3,19.23c-.67.38-1.2.94-1.59,1.58l37.09,22.28h.03Z"/>
  </g>
  <g>
    <path class="cls-19" d="m60.85,73.73v-24.55c-1.23,0-2.47.32-3.58.96l-14.4,8.31c-1.19.69-2.12,1.69-2.74,2.86l20.69,12.43h.03Z"/>
    <path class="cls-19" d="m60.85,73.76l21.46,12.89c.06-.36.09-.73.09-1.1v-20.9c0-1.05-.24-2.06-.66-2.98l-20.89,12.06v.03Z"/>
    <polygon class="cls-19" points="60.82 73.75 60.85 73.76 60.85 73.73 60.82 73.75"/>
    <path class="cls-19" d="m81.73,61.67c-.61-1.32-1.61-2.46-2.91-3.21l-14.4-8.31c-1.11-.64-2.34-.96-3.57-.96v24.55l20.89-12.06Z"/>
    <path class="cls-19" d="m40.13,61.32c-.53,1.01-.84,2.15-.84,3.33v20.9c0,.2.02.4.04.6l21.49-12.4-20.69-12.43Z"/>
    <path class="cls-19" d="m60.85,73.76v27.25c1.23,0,2.47-.32,3.57-.96l14.4-8.31c1.89-1.09,3.15-2.97,3.48-5.09l-21.46-12.89Z"/>
    <path class="cls-19" d="m60.82,73.75l-21.49,12.4c.2,2.32,1.5,4.41,3.53,5.59l14.4,8.31c1.11.64,2.34.96,3.58.96v-27.25l-.03-.02Z"/>
  </g>
  <path class="cls-6" d="m111.24,44.64c-1.68-3.16-4.2-5.86-7.39-7.7l-33.3-19.23c-2.95-1.7-6.3-2.6-9.7-2.6h0c-3.4,0-6.76.9-9.7,2.6l-33.31,19.23c-2.89,1.67-5.24,4.05-6.91,6.84-1.78,2.97-2.79,6.4-2.79,9.97v42.72c0,2.41.48,4.75,1.32,6.94,1.57,4.09,4.48,7.61,8.38,9.86l33.3,19.23c2.95,1.7,6.3,2.6,9.7,2.6h0c3.4,0,6.75-.9,9.7-2.6l33.31-19.23c3.58-2.07,6.32-5.21,7.97-8.88,1.11-2.46,1.73-5.15,1.73-7.92v-42.72c0-3.23-.84-6.33-2.31-9.1Z"/>
  <path class="cls-17" d="m50.37,87.9v-3.13l8.77-7.68c.77-.68,1.48-1.35,2.12-2,.65-.66,1.21-1.31,1.68-1.97.48-.66.85-1.31,1.12-1.97.27-.66.41-1.31.41-1.97,0-1.4-.4-2.51-1.19-3.31-.79-.8-1.9-1.21-3.33-1.21-1.34,0-2.55.5-3.64,1.51-1.09,1.01-1.93,2.3-2.51,3.89l-4.15-2.28c.38-1.06.89-2.04,1.53-2.94.63-.89,1.4-1.66,2.29-2.31.89-.65,1.92-1.14,3.07-1.49,1.15-.35,2.45-.53,3.87-.53,1.25,0,2.44.18,3.58.53,1.14.35,2.15.88,3.02,1.6.87.71,1.55,1.62,2.04,2.72.49,1.1.71,2.4.66,3.89-.02.79-.2,1.61-.53,2.46-.33.85-.77,1.7-1.33,2.56-.56.86-1.21,1.72-1.95,2.57-.75.85-1.56,1.66-2.45,2.43l-5.16,4.52h12.47v4.11h-20.42Z"/>
</svg>
