<svg width="220" height="133" viewBox="0 0 220 133" fill="none" xmlns="http://www.w3.org/2000/svg">
<rect width="220" height="133" fill="url(#paint0_linear_2245_2420)"/>
<rect x="104" y="22" width="97" height="40" rx="7" fill="#D9C9EA" fill-opacity="0.24"/>
<rect x="109" y="27" width="26" height="31" rx="2" fill="#D9C9EA" fill-opacity="0.17"/>
<rect x="139" y="27" width="26" height="31" rx="2" fill="#D9C9EA" fill-opacity="0.17"/>
<rect x="169" y="27" width="26" height="31" rx="2" fill="#D9C9EA" fill-opacity="0.17"/>
<rect x="127" y="73" width="77" height="40" rx="7" fill="#D9C9EA" fill-opacity="0.1"/>
<rect x="135" y="78" width="26" height="31" rx="2" fill="#D9C9EA" fill-opacity="0.15"/>
<rect x="169" y="78" width="26" height="31" rx="2" fill="#D9C9EA" fill-opacity="0.15"/>
<path d="M152.048 19.879C152.155 19.8516 152.219 19.7426 152.192 19.6356L151.745 17.892C151.717 17.785 151.608 17.7206 151.501 17.748C151.394 17.7754 151.33 17.8844 151.357 17.9914L151.755 19.5413L150.205 19.9388C150.098 19.9662 150.033 20.0752 150.061 20.1822C150.088 20.2892 150.197 20.3537 150.304 20.3262L152.048 19.879ZM119.1 19.8735C124.5 16.7622 128.985 14.5738 133.969 14.2479C138.948 13.9222 144.455 15.4543 151.896 19.8574L152.1 19.5132C144.622 15.0882 139.033 13.5158 133.943 13.8487C128.858 14.1812 124.303 16.4143 118.9 19.5269L119.1 19.8735Z" fill="#E5DDED"/>
<path d="M156.853 69.3586C156.774 69.4367 156.774 69.5633 156.853 69.6414L158.125 70.9142C158.203 70.9923 158.33 70.9923 158.408 70.9142C158.486 70.8361 158.486 70.7095 158.408 70.6314L157.277 69.5L158.408 68.3686C158.486 68.2905 158.486 68.1639 158.408 68.0858C158.33 68.0077 158.203 68.0077 158.125 68.0858L156.853 69.3586ZM193.008 69.3L156.994 69.3V69.7L193.008 69.7V69.3Z" fill="#E5DDED"/>
<defs>
<linearGradient id="paint0_linear_2245_2420" x1="45.5" y1="-6.50001" x2="232.564" y2="344.866" gradientUnits="userSpaceOnUse">
<stop stop-color="#FEFEFE"/>
<stop offset="1" stop-color="#F8F9FF" stop-opacity="0"/>
</linearGradient>
</defs>
</svg>
