<svg width="1100" height="273" viewBox="0 0 1100 273" fill="none" xmlns="http://www.w3.org/2000/svg">
<rect width="1100" height="273" rx="20" fill="white"/>
<path d="M415.901 77.6416H470.45V82.1652H415.901V77.6416ZM440.249 79.7703H445.704V102.189H440.249V79.7703ZM422.753 44.4462H428.274V52.6951H458.01V44.4462H463.465V70.457H422.753V44.4462ZM428.274 57.1522V65.9999H458.01V57.1522H428.274ZM491.932 45.7101H496.456V53.0943C496.456 64.869 489.937 74.2489 479.825 78.1738L476.898 73.7832C486.078 70.5235 491.932 62.4076 491.932 53.0943V45.7101ZM492.864 45.7101H497.387V53.2939C497.387 61.4763 503.374 69.193 512.156 72.3197L509.428 76.6437C499.516 73.0514 492.864 63.8711 492.864 53.2939V45.7101ZM518.276 41.9848H523.797V86.4227H518.276V41.9848ZM522.068 60.4784H532.711V65.0686H522.068V60.4784ZM486.477 96.3348H526.458V100.858H486.477V96.3348ZM486.477 82.2317H491.999V98.53H486.477V82.2317ZM584.063 42.0513H589.385V102.189H584.063V42.0513ZM573.884 66.133H585.46V70.7231H573.884V66.133ZM570.425 43.3818H575.614V99.1288H570.425V43.3818ZM540.49 82.7639H544.414C553.196 82.7639 559.183 82.4313 566.168 80.9678L566.7 85.5579C559.515 87.088 553.462 87.354 544.414 87.354H540.49V82.7639ZM540.49 49.369H562.842V53.8926H545.944V84.8261H540.49V49.369ZM599.691 48.3711H635.214V52.8947H599.691V48.3711ZM617.452 55.9548C625.967 55.9548 631.822 60.2123 631.822 66.8647C631.822 73.4506 625.967 77.6416 617.452 77.6416C608.804 77.6416 603.017 73.4506 603.017 66.8647C603.017 60.2123 608.804 55.9548 617.452 55.9548ZM617.452 60.2789C611.931 60.2789 608.272 62.8068 608.272 66.8647C608.272 70.7896 611.931 73.384 617.452 73.384C622.841 73.384 626.566 70.7896 626.566 66.8647C626.566 62.8068 622.841 60.2789 617.452 60.2789ZM640.669 42.0513H646.191V79.6373H640.669V42.0513ZM644.661 58.6158H655.105V63.2059H644.661V58.6158ZM607.141 82.897H646.191V102.189H640.669V87.4206H607.141V82.897ZM614.658 41.7187H620.18V50.899H614.658V41.7187ZM666.342 48.0385H705.059V52.6286H666.342V48.0385ZM660.754 89.2167H715.104V93.8069H660.754V89.2167ZM674.059 69.3261H679.514V90.8798H674.059V69.3261ZM703.263 48.0385H708.718V54.6909C708.718 62.3411 708.718 70.1909 706.656 81.4334L701.134 80.7682C703.263 70.1244 703.263 62.1415 703.263 54.6909V48.0385ZM688.894 69.3261H694.349V90.8798H688.894V69.3261Z" fill="black"/>
<path d="M423.796 154.887H473.661V163.953H423.796V154.887ZM415.671 209.284H487.26V218.436H415.671V209.284ZM469.128 154.887H480.332V161.815C480.332 171.394 480.418 182.599 476.74 199.79L465.535 198.593C469.128 182.513 469.128 170.966 469.128 161.815V154.887ZM471.18 173.96V182.513L422.856 185.164L421.316 175.5L471.18 173.96ZM441.074 190.296H452.449V212.62H441.074V190.296ZM502.734 184.822H558.415V193.889H502.734V184.822ZM494.438 208.685H566.113V218.008H494.438V208.685ZM502.734 154.801H557.816V164.038H514.025V188.586H502.734V154.801ZM579.278 150.439H638.294V158.907H579.278V150.439ZM579.876 168.999H637.695V177.467H579.876V168.999ZM589.37 153.775H600.746V174.473H589.37V153.775ZM616.826 153.775H628.201V174.473H616.826V153.775ZM573.034 181.572H644.623V190.467H573.034V181.572ZM581.245 194.829H635.984V214.501H592.535V221.857H581.33V206.889H624.78V202.955H581.245V194.829ZM581.33 218.692H638.037V226.989H581.33V218.692ZM653.854 199.705H659.499C669.078 199.705 677.546 199.448 687.382 197.737L688.323 206.889C678.144 208.771 669.42 209.028 659.499 209.028H653.854V199.705ZM653.768 156.084H681.737V186.362H664.887V203.297H653.854V177.467H670.789V165.065H653.768V156.084ZM708.935 148.301H719.712V227.502H708.935V148.301ZM684.987 175.243H697.303V184.566H684.987V175.243ZM692.856 149.755H703.376V223.739H692.856V149.755ZM784.709 148.215H796.17V227.673H784.709V148.215ZM753.49 153.775C765.464 153.775 774.274 164.723 774.274 182C774.274 199.448 765.464 210.396 753.49 210.396C741.516 210.396 732.706 199.448 732.706 182C732.706 164.723 741.516 153.775 753.49 153.775ZM753.49 164.124C747.589 164.124 743.569 170.368 743.569 182C743.569 193.803 747.589 200.132 753.49 200.132C759.392 200.132 763.326 193.803 763.326 182C763.326 170.368 759.392 164.124 753.49 164.124ZM838.501 152.834H848.422V158.564C848.422 175.756 836.192 190.981 815.664 195L810.789 185.592C828.665 182.513 838.501 169.94 838.501 158.564V152.834ZM840.81 152.834H850.646V158.564C850.646 170.197 860.397 182.513 878.358 185.592L873.483 195C852.956 190.981 840.81 176.013 840.81 158.564V152.834ZM809.164 208.6H880.839V217.837H809.164V208.6Z" fill="#32306B"/>
<g clip-path="url(#clip0_3115_2376)">
<path d="M241.69 111.609L223.488 160.321L256.6 200.448L307.873 191.842L326.075 143.108L292.984 103.002L241.69 111.609Z" fill="#3E22AC"/>
<path d="M275.427 94.1166L257.224 142.829L290.316 182.956L341.61 174.349L359.812 125.616L326.699 85.5103L275.427 94.1166Z" stroke="#040000" stroke-width="2.15159" stroke-miterlimit="10"/>
<path d="M234.202 72.8805L216 121.592L249.091 161.72L300.385 153.113L318.566 104.38L285.475 64.2742L234.202 72.8805Z" fill="black"/>
</g>
<defs>
<clipPath id="clip0_3115_2376">
<rect x="216" y="64.2742" width="145.017" height="136.174" rx="20" fill="white"/>
</clipPath>
</defs>
</svg>
