<?xml version="1.0" encoding="UTF-8"?>
<svg id="_레이어_1" data-name="레이어 1" xmlns="http://www.w3.org/2000/svg" xmlns:xlink="http://www.w3.org/1999/xlink" viewBox="0 0 121.5 142.74">
  <defs>
    <style>
      .cls-1 {
        fill: url(#_무제_그라디언트_107-2);
      }

      .cls-1, .cls-2, .cls-3, .cls-4, .cls-5, .cls-6, .cls-7, .cls-8, .cls-9, .cls-10 {
        stroke-miterlimit: 10;
      }

      .cls-1, .cls-2, .cls-4, .cls-5, .cls-6, .cls-7, .cls-8, .cls-9 {
        stroke: #a0500a;
      }

      .cls-11 {
        fill: #d1aa7b;
      }

      .cls-11, .cls-12, .cls-13, .cls-14, .cls-15, .cls-16, .cls-17, .cls-18, .cls-19, .cls-20, .cls-21, .cls-22, .cls-23, .cls-24 {
        stroke-width: 0px;
      }

      .cls-12 {
        fill: url(#_무제_그라디언트_105);
      }

      .cls-2 {
        fill: #bc9645;
      }

      .cls-13 {
        fill: #d2ae7f;
      }

      .cls-3 {
        stroke: #488246;
      }

      .cls-3, .cls-5, .cls-10 {
        fill: none;
      }

      .cls-3, .cls-10 {
        stroke-width: .77px;
      }

      .cls-14 {
        fill: url(#_무제_그라디언트_110-2);
      }

      .cls-4 {
        fill: url(#_무제_그라디언트_107-6);
      }

      .cls-15 {
        fill: url(#_무제_그라디언트_109);
      }

      .cls-6 {
        fill: url(#_무제_그라디언트_107-3);
      }

      .cls-7 {
        fill: url(#_무제_그라디언트_107-4);
      }

      .cls-16 {
        fill: url(#_무제_그라디언트_106);
      }

      .cls-17 {
        fill: #d1ab7b;
      }

      .cls-18 {
        fill: url(#_무제_그라디언트_107-7);
      }

      .cls-19 {
        fill: #d4b783;
      }

      .cls-20 {
        fill: url(#_무제_그라디언트_110);
      }

      .cls-21 {
        fill: #cc9c6d;
      }

      .cls-22 {
        fill: url(#_무제_그라디언트_108);
      }

      .cls-8 {
        fill: url(#_무제_그라디언트_107-5);
      }

      .cls-23 {
        fill: #81431a;
      }

      .cls-24 {
        fill: url(#_무제_그라디언트_111);
      }

      .cls-9 {
        fill: url(#_무제_그라디언트_107);
      }

      .cls-10 {
        stroke: #3e5b81;
      }
    </style>
    <linearGradient id="_무제_그라디언트_107" data-name="무제 그라디언트 107" x1="98.86" y1="43.89" x2="120.88" y2="43.89" gradientUnits="userSpaceOnUse">
      <stop offset="0" stop-color="#c4a25b"/>
      <stop offset="1" stop-color="#d6c68b"/>
    </linearGradient>
    <linearGradient id="_무제_그라디언트_107-2" data-name="무제 그라디언트 107" x1="87.43" y1="32.79" x2="121" y2="32.79" xlink:href="#_무제_그라디언트_107"/>
    <linearGradient id="_무제_그라디언트_107-3" data-name="무제 그라디언트 107" x1="66.07" y1="23.08" x2="116.11" y2="23.08" xlink:href="#_무제_그라디언트_107"/>
    <linearGradient id="_무제_그라디언트_107-4" data-name="무제 그라디언트 107" x1="5591.3" y1="43.89" x2="5613.32" y2="43.89" gradientTransform="translate(5613.94) rotate(-180) scale(1 -1)" xlink:href="#_무제_그라디언트_107"/>
    <linearGradient id="_무제_그라디언트_107-5" data-name="무제 그라디언트 107" x1="5579.87" y1="32.79" x2="5613.44" y2="32.79" gradientTransform="translate(5613.94) rotate(-180) scale(1 -1)" xlink:href="#_무제_그라디언트_107"/>
    <linearGradient id="_무제_그라디언트_107-6" data-name="무제 그라디언트 107" x1="5558.51" y1="23.08" x2="5608.55" y2="23.08" gradientTransform="translate(5613.94) rotate(-180) scale(1 -1)" xlink:href="#_무제_그라디언트_107"/>
    <linearGradient id="_무제_그라디언트_110" data-name="무제 그라디언트 110" x1="87.43" y1="104.66" x2="87.43" y2="44.76" gradientUnits="userSpaceOnUse">
      <stop offset="0" stop-color="#b57c29"/>
      <stop offset="1" stop-color="#ae580e"/>
    </linearGradient>
    <linearGradient id="_무제_그라디언트_111" data-name="무제 그라디언트 111" x1="61.01" y1="44.54" x2="111.53" y2="44.54" gradientUnits="userSpaceOnUse">
      <stop offset="0" stop-color="#af5c0f"/>
      <stop offset="1" stop-color="#bc9947"/>
    </linearGradient>
    <linearGradient id="_무제_그라디언트_110-2" data-name="무제 그라디언트 110" x1="61.01" y1="104.7" x2="112.12" y2="104.7" xlink:href="#_무제_그라디언트_110"/>
    <linearGradient id="_무제_그라디언트_109" data-name="무제 그라디언트 109" x1="22.98" y1="65.11" x2="66.19" y2="39.85" gradientUnits="userSpaceOnUse">
      <stop offset="0" stop-color="#d3bd83"/>
      <stop offset="1" stop-color="#fff"/>
    </linearGradient>
    <linearGradient id="_무제_그라디언트_108" data-name="무제 그라디언트 108" x1="9.48" y1="104.7" x2="61.01" y2="104.7" gradientUnits="userSpaceOnUse">
      <stop offset="0" stop-color="#b36021"/>
      <stop offset="1" stop-color="#c3a85a"/>
    </linearGradient>
    <linearGradient id="_무제_그라디언트_107-7" data-name="무제 그라디언트 107" x1="34.57" y1="43.89" x2="34.57" y2="103.67" xlink:href="#_무제_그라디언트_107"/>
    <linearGradient id="_무제_그라디언트_106" data-name="무제 그라디언트 106" x1="61.01" y1="52.03" x2="98.52" y2="52.03" gradientUnits="userSpaceOnUse">
      <stop offset="0" stop-color="#c89762"/>
      <stop offset="1" stop-color="#d6b98c"/>
    </linearGradient>
    <linearGradient id="_무제_그라디언트_105" data-name="무제 그라디언트 105" x1="23.79" y1="52.04" x2="61.01" y2="52.04" gradientUnits="userSpaceOnUse">
      <stop offset="0" stop-color="#d5b486"/>
      <stop offset="1" stop-color="#fff"/>
    </linearGradient>
  </defs>
  <path class="cls-2" d="m117.24,41.31c-1.88-3.52-4.69-6.54-8.25-8.59l-37.16-21.45c-3.29-1.9-7.03-2.9-10.83-2.9h0c-3.8,0-7.54,1-10.82,2.9L13.02,32.71c-3.23,1.87-5.85,4.52-7.71,7.63-1.99,3.31-3.11,7.14-3.11,11.12v47.67c0,2.69.53,5.3,1.47,7.74,1.76,4.56,5,8.49,9.35,11.01l37.16,21.46c3.29,1.9,7.03,2.9,10.82,2.9h0c3.79,0,7.54-1,10.82-2.9l37.16-21.46c3.99-2.31,7.05-5.82,8.89-9.9,1.23-2.75,1.93-5.75,1.93-8.84v-47.67c0-3.6-.94-7.07-2.58-10.15Z"/>
  <g>
    <path class="cls-9" d="m99.49,52.05s-2.57-5.15,2.68-8.15l5.25-3s7.08-3.65,10.4-6.54,5.68,10.51-2.57,13.94-8.47,8.15-15.76,3.75Z"/>
    <path class="cls-1" d="m88.39,45.23s-3.92-7.84,4.09-12.42l8.01-4.58s10.79-5.56,15.85-9.97c5.07-4.41,8.66,16.02-3.92,21.25-12.58,5.23-12.91,12.42-24.02,5.72Z"/>
    <path class="cls-6" d="m67.5,41.63s-5.85-11.7,6.09-18.52l11.94-6.82s16.08-8.28,23.63-14.86c7.55-6.58,12.91,23.88-5.85,31.68-18.76,7.8-19.25,18.52-35.82,8.53Z"/>
  </g>
  <g>
    <path class="cls-7" d="m22.01,52.05s2.57-5.15-2.68-8.15l-5.25-3s-7.08-3.65-10.4-6.54c-3.32-2.89-5.68,10.51,2.57,13.94,8.26,3.43,8.47,8.15,15.76,3.75Z"/>
    <path class="cls-8" d="m33.11,45.23s3.92-7.84-4.09-12.42l-8.01-4.58s-10.79-5.56-15.85-9.97-8.66,16.02,3.92,21.25c12.58,5.23,12.91,12.42,24.02,5.72Z"/>
    <path class="cls-4" d="m53.99,41.63s5.85-11.7-6.09-18.52l-11.94-6.82S19.88,8,12.33,1.42-.59,25.3,18.18,33.1c18.76,7.8,19.25,18.52,35.82,8.53Z"/>
  </g>
  <g>
    <path class="cls-20" d="m61.01,73.96l51.11,30.71c1.11-2.47,1.74-5.16,1.74-7.95v-42.84c0-3.23-.84-6.35-2.32-9.12l-50.53,29.17v.03Z"/>
    <polygon class="cls-3" points="60.98 73.94 61.01 73.96 61.01 73.93 60.98 73.94"/>
    <path class="cls-24" d="m111.53,44.76c-1.69-3.16-4.21-5.88-7.41-7.72l-33.39-19.28c-2.95-1.71-6.32-2.61-9.73-2.61h0v58.78l50.53-29.17Z"/>
    <path class="cls-14" d="m61.01,73.96v61.49h0c3.41,0,6.77-.9,9.73-2.61l33.39-19.28c3.59-2.07,6.34-5.23,7.99-8.9l-51.11-30.71Z"/>
    <path class="cls-15" d="m61.01,73.93V15.15c-3.41,0-6.77.9-9.73,2.61l-33.4,19.28c-2.9,1.68-5.26,4.06-6.93,6.85l50.03,30.05h.03Z"/>
    <path class="cls-22" d="m60.98,73.94l-51.5,29.73c1.58,4.1,4.5,7.63,8.4,9.89l33.39,19.28c2.95,1.7,6.32,2.61,9.73,2.61v-61.49l-.03-.02Z"/>
    <path class="cls-18" d="m10.95,43.89c-1.79,2.98-2.79,6.42-2.79,9.99v42.84c0,2.42.48,4.76,1.32,6.96l51.5-29.73L10.95,43.89Z"/>
  </g>
  <path class="cls-23" d="m19.66,51.69v47.22c0,1.52.81,2.93,2.13,3.69l37.08,21.41c1.32.76,2.94.76,4.26,0l37.08-21.41c1.32-.76,2.13-2.17,2.13-3.69v-47.22c0-1.52-.81-2.93-2.13-3.69l-37.08-21.41c-1.32-.76-2.94-.76-4.26,0l-37.08,21.41c-1.32.76-2.13,2.17-2.13,3.69Z"/>
  <g>
    <path class="cls-17" d="m61.01,73.96l37.85,22.74v-42.82c0-.56-.14-1.1-.34-1.61l-37.51,21.66v.03Z"/>
    <path class="cls-16" d="m98.52,52.27c-.36-.93-1-1.74-1.89-2.25l-33.39-19.28c-.68-.39-1.45-.6-2.23-.6,0,0,0,0,0,0v43.79l37.51-21.66Z"/>
    <polygon class="cls-10" points="60.98 73.94 61.01 73.96 61.01 73.93 60.98 73.94"/>
    <path class="cls-21" d="m61.01,73.96v46.5s0,0,0,0c.78,0,1.55-.21,2.23-.6l33.39-19.28c1.37-.79,2.23-2.27,2.23-3.86v-.02l-37.85-22.74Z"/>
    <path class="cls-11" d="m60.98,73.94l-37.83,21.84v.94c0,1.59.85,3.07,2.23,3.86l33.39,19.28c.68.39,1.45.6,2.23.6v-46.5l-.03-.02Z"/>
    <path class="cls-13" d="m23.79,51.6c-.41.68-.64,1.46-.64,2.28v41.9l37.83-21.84-37.19-22.34Z"/>
    <path class="cls-12" d="m61.01,73.93V30.14c-.78,0-1.55.21-2.23.6l-33.39,19.28c-.67.39-1.21.94-1.59,1.58l37.19,22.34h.03Z"/>
  </g>
  <g>
    <path class="cls-19" d="m61.01,73.93v-24.61c-1.24,0-2.48.32-3.58.96l-14.44,8.34c-1.19.69-2.12,1.69-2.74,2.87l20.74,12.46h.03Z"/>
    <path class="cls-19" d="m61.01,73.96l21.51,12.92c.06-.36.09-.73.09-1.11v-20.95c0-1.05-.24-2.06-.66-2.99l-20.94,12.09v.03Z"/>
    <polygon class="cls-19" points="60.98 73.94 61.01 73.96 61.01 73.93 60.98 73.94"/>
    <path class="cls-19" d="m81.95,61.84c-.61-1.33-1.61-2.47-2.92-3.22l-14.44-8.34c-1.11-.64-2.35-.96-3.58-.96v24.61l20.94-12.09Z"/>
    <path class="cls-19" d="m40.24,61.48c-.54,1.01-.84,2.15-.84,3.34v20.95c0,.2.02.4.04.6l21.54-12.44-20.74-12.46Z"/>
    <path class="cls-19" d="m61.01,73.96v27.32c1.24,0,2.48-.32,3.58-.96l14.44-8.34c1.89-1.09,3.16-2.98,3.49-5.1l-21.51-12.92Z"/>
    <path class="cls-19" d="m60.98,73.94l-21.54,12.44c.2,2.32,1.5,4.43,3.54,5.6l14.44,8.34c1.11.64,2.35.96,3.58.96v-27.32l-.03-.02Z"/>
  </g>
  <path class="cls-5" d="m111.53,44.76c-1.69-3.16-4.21-5.88-7.41-7.72l-33.39-19.28c-2.95-1.71-6.32-2.61-9.73-2.61h0c-3.41,0-6.77.9-9.73,2.61l-33.4,19.28c-2.9,1.68-5.26,4.06-6.93,6.85-1.79,2.98-2.79,6.42-2.79,9.99v42.84c0,2.42.48,4.76,1.32,6.96,1.58,4.1,4.5,7.63,8.4,9.89l33.39,19.28c2.95,1.7,6.32,2.61,9.73,2.61h0c3.41,0,6.77-.9,9.73-2.61l33.39-19.28c3.59-2.07,6.34-5.23,7.99-8.9,1.11-2.47,1.74-5.16,1.74-7.95v-42.84c0-3.23-.84-6.35-2.32-9.12Z"/>
  <path class="cls-23" d="m55.53,63.32h10.15v26.81h-5.38v-22.65h-4.77v-4.16Z"/>
</svg>
