<?xml version="1.0" encoding="UTF-8"?>
<svg id="_레이어_1" data-name="레이어 1" xmlns="http://www.w3.org/2000/svg" xmlns:xlink="http://www.w3.org/1999/xlink" viewBox="0 0 121.49 142.73">
  <defs>
    <style>
      .cls-1 {
        fill: url(#_무제_그라디언트_45-4);
      }

      .cls-1, .cls-2, .cls-3, .cls-4, .cls-5, .cls-6, .cls-7, .cls-8, .cls-9, .cls-10 {
        stroke-miterlimit: 10;
      }

      .cls-1, .cls-3, .cls-4, .cls-5, .cls-6, .cls-8, .cls-9, .cls-10 {
        stroke: #6445c2;
      }

      .cls-11 {
        fill: url(#_무제_그라디언트_45-7);
      }

      .cls-11, .cls-12, .cls-13, .cls-14, .cls-15, .cls-16, .cls-17, .cls-18, .cls-19, .cls-20, .cls-21, .cls-22, .cls-23, .cls-24 {
        stroke-width: 0px;
      }

      .cls-12 {
        fill: #d1c5ee;
      }

      .cls-13 {
        fill: url(#_무제_그라디언트_43);
      }

      .cls-2 {
        stroke: #a49289;
      }

      .cls-2, .cls-4, .cls-7 {
        fill: none;
      }

      .cls-2, .cls-7 {
        stroke-width: .77px;
      }

      .cls-14 {
        fill: #ece1f6;
      }

      .cls-15 {
        fill: #e1d7f3;
      }

      .cls-16 {
        fill: #e5dbf4;
      }

      .cls-3 {
        fill: url(#_무제_그라디언트_45-5);
      }

      .cls-17 {
        fill: url(#_무제_그라디언트_49);
      }

      .cls-5 {
        fill: url(#_무제_그라디언트_45);
      }

      .cls-18 {
        fill: url(#_무제_그라디언트_48);
      }

      .cls-6 {
        fill: url(#_무제_그라디언트_45-3);
      }

      .cls-19 {
        fill: url(#_무제_그라디언트_48-2);
      }

      .cls-7 {
        stroke: #a39e7e;
      }

      .cls-8 {
        fill: url(#_무제_그라디언트_45-2);
      }

      .cls-20 {
        fill: url(#_무제_그라디언트_47);
      }

      .cls-21 {
        fill: url(#_무제_그라디언트_46);
      }

      .cls-9 {
        fill: #c393de;
      }

      .cls-10 {
        fill: url(#_무제_그라디언트_45-6);
      }

      .cls-22 {
        fill: #5d51a3;
      }

      .cls-23 {
        fill: #e1d6f3;
      }

      .cls-24 {
        fill: url(#_무제_그라디언트_44);
      }
    </style>
    <linearGradient id="_무제_그라디언트_45" data-name="무제 그라디언트 45" x1="98.85" y1="43.88" x2="120.87" y2="43.88" gradientUnits="userSpaceOnUse">
      <stop offset="0" stop-color="#d1afe6"/>
      <stop offset="1" stop-color="#f8eaf8"/>
    </linearGradient>
    <linearGradient id="_무제_그라디언트_45-2" data-name="무제 그라디언트 45" x1="87.42" y1="32.79" x2="120.99" y2="32.79" xlink:href="#_무제_그라디언트_45"/>
    <linearGradient id="_무제_그라디언트_45-3" data-name="무제 그라디언트 45" x1="66.07" y1="23.08" x2="116.11" y2="23.08" xlink:href="#_무제_그라디언트_45"/>
    <linearGradient id="_무제_그라디언트_45-4" data-name="무제 그라디언트 45" x1="5904.45" y1="43.88" x2="5926.47" y2="43.88" gradientTransform="translate(5927.09) rotate(-180) scale(1 -1)" xlink:href="#_무제_그라디언트_45"/>
    <linearGradient id="_무제_그라디언트_45-5" data-name="무제 그라디언트 45" x1="5893.03" y1="32.79" x2="5926.59" y2="32.79" gradientTransform="translate(5927.09) rotate(-180) scale(1 -1)" xlink:href="#_무제_그라디언트_45"/>
    <linearGradient id="_무제_그라디언트_45-6" data-name="무제 그라디언트 45" x1="5871.67" y1="23.08" x2="5921.71" y2="23.08" gradientTransform="translate(5927.09) rotate(-180) scale(1 -1)" xlink:href="#_무제_그라디언트_45"/>
    <linearGradient id="_무제_그라디언트_48" data-name="무제 그라디언트 48" x1="87.42" y1="104.66" x2="87.42" y2="44.75" gradientUnits="userSpaceOnUse">
      <stop offset="0" stop-color="#9d70d7"/>
      <stop offset="1" stop-color="#6e4ed0"/>
    </linearGradient>
    <linearGradient id="_무제_그라디언트_49" data-name="무제 그라디언트 49" x1="61" y1="44.53" x2="111.53" y2="44.53" gradientUnits="userSpaceOnUse">
      <stop offset="0" stop-color="#724fd1"/>
      <stop offset="1" stop-color="#c995de"/>
    </linearGradient>
    <linearGradient id="_무제_그라디언트_48-2" data-name="무제 그라디언트 48" x1="61" y1="104.7" x2="112.11" y2="104.7" xlink:href="#_무제_그라디언트_48"/>
    <linearGradient id="_무제_그라디언트_47" data-name="무제 그라디언트 47" x1="22.97" y1="65.1" x2="66.18" y2="39.85" gradientUnits="userSpaceOnUse">
      <stop offset="0" stop-color="#f1e0f5"/>
      <stop offset="1" stop-color="#fff"/>
    </linearGradient>
    <linearGradient id="_무제_그라디언트_46" data-name="무제 그라디언트 46" x1="9.48" y1="104.69" x2="61" y2="104.69" gradientUnits="userSpaceOnUse">
      <stop offset="0" stop-color="#7c66d5"/>
      <stop offset="1" stop-color="#dcade5"/>
    </linearGradient>
    <linearGradient id="_무제_그라디언트_45-7" data-name="무제 그라디언트 45" x1="34.57" y1="43.88" x2="34.57" y2="103.67" xlink:href="#_무제_그라디언트_45"/>
    <linearGradient id="_무제_그라디언트_44" data-name="무제 그라디언트 44" x1="61" y1="52.03" x2="98.51" y2="52.03" gradientUnits="userSpaceOnUse">
      <stop offset="0" stop-color="#c8b8ea"/>
      <stop offset="1" stop-color="#f1ebf8"/>
    </linearGradient>
    <linearGradient id="_무제_그라디언트_43" data-name="무제 그라디언트 43" x1="23.79" y1="52.04" x2="61" y2="52.04" gradientUnits="userSpaceOnUse">
      <stop offset="0" stop-color="#ece4f7"/>
      <stop offset="1" stop-color="#fff"/>
    </linearGradient>
  </defs>
  <path class="cls-9" d="m117.23,41.3c-1.88-3.52-4.69-6.54-8.24-8.59l-37.16-21.45c-3.29-1.9-7.03-2.9-10.83-2.9h0c-3.8,0-7.54,1-10.82,2.9L13.02,32.71c-3.23,1.87-5.85,4.52-7.71,7.63-1.99,3.31-3.11,7.14-3.11,11.12v47.67c0,2.69.53,5.3,1.47,7.74,1.76,4.56,5,8.49,9.35,11.01l37.16,21.46c3.29,1.9,7.03,2.9,10.82,2.9h0c3.79,0,7.54-1,10.82-2.9l37.16-21.46c3.99-2.31,7.05-5.82,8.89-9.9,1.23-2.75,1.93-5.74,1.93-8.84v-47.67c0-3.6-.94-7.07-2.58-10.15Z"/>
  <g>
    <path class="cls-5" d="m99.48,52.04s-2.57-5.15,2.68-8.15l5.25-3s7.08-3.65,10.4-6.54c3.32-2.89,5.68,10.51-2.57,13.94-8.25,3.43-8.47,8.15-15.76,3.75Z"/>
    <path class="cls-8" d="m88.39,45.23s-3.92-7.84,4.09-12.42l8.01-4.58s10.79-5.56,15.85-9.97c5.07-4.41,8.66,16.02-3.92,21.25-12.58,5.23-12.91,12.42-24.02,5.72Z"/>
    <path class="cls-6" d="m67.5,41.62s-5.85-11.69,6.09-18.52l11.94-6.82s16.08-8.28,23.63-14.86c7.55-6.58,12.91,23.88-5.85,31.67-18.76,7.8-19.25,18.52-35.82,8.53Z"/>
  </g>
  <g>
    <path class="cls-1" d="m22.01,52.04s2.57-5.15-2.68-8.15l-5.25-3s-7.08-3.65-10.4-6.54c-3.32-2.89-5.68,10.51,2.57,13.94s8.47,8.15,15.76,3.75Z"/>
    <path class="cls-3" d="m33.1,45.23s3.92-7.84-4.09-12.42l-8.01-4.58s-10.79-5.56-15.85-9.97C.09,13.85-3.5,34.28,9.08,39.51c12.58,5.23,12.91,12.42,24.02,5.72Z"/>
    <path class="cls-10" d="m53.99,41.62s5.85-11.69-6.09-18.52l-11.94-6.82S19.88,8,12.33,1.42C4.77-5.15-.59,25.3,18.17,33.1c18.76,7.8,19.25,18.52,35.82,8.53Z"/>
  </g>
  <g>
    <path class="cls-18" d="m61,73.95l51.11,30.7c1.11-2.47,1.74-5.16,1.74-7.95v-42.83c0-3.23-.84-6.35-2.32-9.12l-50.52,29.17v.03Z"/>
    <polygon class="cls-2" points="60.98 73.94 61 73.95 61 73.92 60.98 73.94"/>
    <path class="cls-17" d="m111.53,44.75c-1.69-3.16-4.21-5.88-7.41-7.72l-33.39-19.28c-2.95-1.71-6.32-2.61-9.73-2.61h0v58.78l50.52-29.17Z"/>
    <path class="cls-19" d="m61,73.95v61.49h0c3.41,0,6.77-.9,9.73-2.61l33.39-19.28c3.59-2.07,6.34-5.23,7.99-8.9l-51.11-30.7Z"/>
    <path class="cls-20" d="m61,73.92V15.15c-3.41,0-6.77.9-9.73,2.61l-33.39,19.28c-2.9,1.68-5.26,4.06-6.93,6.85l50.02,30.05h.03Z"/>
    <path class="cls-21" d="m60.98,73.94l-51.49,29.73c1.58,4.1,4.5,7.63,8.4,9.89l33.39,19.28c2.95,1.7,6.32,2.61,9.73,2.61v-61.49l-.03-.02Z"/>
    <path class="cls-11" d="m10.95,43.88c-1.79,2.98-2.79,6.42-2.79,9.99v42.83c0,2.42.48,4.76,1.32,6.96l51.49-29.73L10.95,43.88Z"/>
  </g>
  <path class="cls-22" d="m19.66,51.68v47.22c0,1.52.81,2.93,2.13,3.69l37.08,21.41c1.32.76,2.94.76,4.26,0l37.08-21.41c1.32-.76,2.13-2.17,2.13-3.69v-47.22c0-1.52-.81-2.93-2.13-3.69l-37.08-21.41c-1.32-.76-2.94-.76-4.26,0l-37.08,21.41c-1.32.76-2.13,2.17-2.13,3.69Z"/>
  <g>
    <path class="cls-23" d="m61,73.95l37.85,22.74v-42.82c0-.56-.14-1.1-.34-1.61l-37.51,21.66v.03Z"/>
    <path class="cls-24" d="m98.51,52.27c-.36-.93-1-1.74-1.89-2.25l-33.39-19.28c-.68-.39-1.45-.6-2.23-.6,0,0,0,0,0,0v43.78l37.51-21.66Z"/>
    <polygon class="cls-7" points="60.98 73.94 61 73.95 61 73.92 60.98 73.94"/>
    <path class="cls-12" d="m61,73.95v46.5s0,0,0,0c.78,0,1.55-.21,2.23-.6l33.39-19.28c1.37-.79,2.23-2.27,2.23-3.86v-.02l-37.85-22.74Z"/>
    <path class="cls-15" d="m60.98,73.94l-37.82,21.84v.94c0,1.59.85,3.07,2.23,3.86l33.39,19.28c.68.39,1.45.6,2.23.6v-46.5l-.03-.02Z"/>
    <path class="cls-16" d="m23.79,51.6c-.41.68-.64,1.46-.64,2.28v41.9l37.82-21.84-37.19-22.34Z"/>
    <path class="cls-13" d="m61,73.92V30.14c-.78,0-1.55.21-2.23.6l-33.39,19.28c-.67.39-1.21.94-1.59,1.58l37.19,22.34h.03Z"/>
  </g>
  <g>
    <path class="cls-14" d="m61,73.92v-24.61c-1.24,0-2.48.32-3.58.96l-14.44,8.34c-1.19.69-2.12,1.69-2.74,2.87l20.74,12.46h.03Z"/>
    <path class="cls-14" d="m61,73.95l21.51,12.92c.06-.36.09-.73.09-1.11v-20.95c0-1.05-.24-2.06-.66-2.99l-20.94,12.09v.03Z"/>
    <polygon class="cls-14" points="60.98 73.94 61 73.95 61 73.92 60.98 73.94"/>
    <path class="cls-14" d="m81.95,61.83c-.61-1.33-1.61-2.47-2.92-3.22l-14.44-8.34c-1.11-.64-2.35-.96-3.58-.96v24.61l20.94-12.09Z"/>
    <path class="cls-14" d="m40.24,61.48c-.54,1.01-.84,2.15-.84,3.34v20.95c0,.2.02.4.04.6l21.54-12.44-20.74-12.46Z"/>
    <path class="cls-14" d="m61,73.95v27.32c1.24,0,2.48-.32,3.58-.96l14.44-8.34c1.89-1.09,3.16-2.98,3.49-5.1l-21.51-12.92Z"/>
    <path class="cls-14" d="m60.98,73.94l-21.54,12.44c.2,2.32,1.5,4.42,3.54,5.6l14.44,8.34c1.11.64,2.35.96,3.58.96v-27.32l-.03-.02Z"/>
  </g>
  <path class="cls-4" d="m111.53,44.75c-1.69-3.16-4.21-5.88-7.41-7.72l-33.39-19.28c-2.95-1.71-6.32-2.61-9.73-2.61h0c-3.41,0-6.77.9-9.73,2.61l-33.39,19.28c-2.9,1.68-5.26,4.06-6.93,6.85-1.79,2.98-2.79,6.42-2.79,9.99v42.83c0,2.42.48,4.76,1.32,6.96,1.58,4.1,4.5,7.63,8.4,9.89l33.39,19.28c2.95,1.7,6.32,2.61,9.73,2.61h0c3.41,0,6.77-.9,9.73-2.61l33.39-19.28c3.59-2.07,6.34-5.23,7.99-8.9,1.11-2.47,1.74-5.16,1.74-7.95v-42.83c0-3.23-.84-6.35-2.32-9.12Z"/>
  <path class="cls-22" d="m50.78,87.14v-3.13l8.79-7.7c.77-.68,1.48-1.35,2.13-2.01.65-.66,1.21-1.32,1.69-1.98.48-.66.85-1.32,1.12-1.98.27-.66.41-1.32.41-1.98,0-1.41-.4-2.51-1.19-3.32-.79-.81-1.91-1.21-3.34-1.21-1.34,0-2.55.51-3.65,1.52-1.09,1.01-1.93,2.31-2.52,3.9l-4.16-2.28c.39-1.07.9-2.05,1.53-2.95.64-.9,1.4-1.67,2.3-2.32.9-.65,1.92-1.15,3.08-1.5,1.16-.35,2.45-.53,3.88-.53,1.25,0,2.45.18,3.59.53,1.15.35,2.16.89,3.03,1.6.87.71,1.56,1.62,2.04,2.72.49,1.1.71,2.4.66,3.9-.02.79-.2,1.62-.53,2.47-.33.85-.77,1.71-1.33,2.57-.56.86-1.21,1.72-1.96,2.57s-1.57,1.66-2.45,2.44l-5.18,4.53h12.5v4.12h-20.47Z"/>
</svg>
