<?xml version="1.0" encoding="UTF-8"?>
<svg id="_레이어_1" data-name="레이어 1" xmlns="http://www.w3.org/2000/svg" viewBox="0 0 166.74 159.88">
  <defs>
    <style>
      .cls-1 {
        fill: #009953;
      }

      .cls-1, .cls-2 {
        stroke-width: 0px;
      }

      .cls-2 {
        fill: #004da0;
      }
    </style>
  </defs>
  <path class="cls-1" d="M148.81,136.94l-48.79-.03c-15.05.13-16.93,10.08-16.93,10.08-3.07-11.28-17.61-10.08-17.61-10.08H17.83v-69.91h45.96c15.25.28,19.31,12.36,19.31,12.36,5.05-12.24,20.88-12.36,20.88-12.36h44.85v69.94ZM100.84,60.04c-13.37.41-17.61,8.26-17.61,8.26-4.27-8.21-17.19-8.21-17.19-8.21H10.85v83.76h54.08c7.38,0,9.97,3.48,10.84,5.96h14.96c2.56-6.27,10.11-5.93,10.11-5.93h55.05V60.04h-55.05Z"/>
  <path class="cls-1" d="M54.95,99.22h-20.13v20.31h27.7v-.08h0v-13.26h7v13.35h27.68v-13.35h7.01v13.3h27.67v-7h-20.08v-6.3h20.11v-21.06h-27.7v14.06h-7.01v-14.06h-7.6v14.06h-12.5v-14.06h-7.57v14.06h-7v-14.06h-27.72v6.99h20.15v7.12ZM54.95,112.52h-12.58v-6.34h12.58v6.34ZM89.66,112.52h-12.56v-6.34h12.56v6.34ZM111.81,92.09h12.54v7.13h-12.54v-7.13Z"/>
  <g>
    <polygon class="cls-2" points="79.17 21.25 85.85 19.04 79.17 19.04 79.17 21.25"/>
    <path class="cls-2" d="M64.68,30.86c2.45-2.58,5.02-2.25,5.02-1.16s-1.26,2.46-1.26,2.46h-15.89l-8.71-12.58h0c-2.21-3.24-4.96-4.65-9.61-4.65H10.85v37.8h53.37c15.81.19,18.87,6.88,18.87,6.88,3.31-5.23,9.62-6.83,19.49-6.86h53.3V14.94h-23.81c-4.52,0-7.32,1.41-9.53,4.65h0l-8.88,12.58h-13.24v-11.22l9.05-8.82h-9.33l2.34-2.05h-18.91c-3.76,0-6.74,1.54-7.89,3.69h-6.63c-6.11,0-8.34,3.45-7.08,7.97l2.69,9.12ZM148.81,45.82h-44.46c-11.86,0-17.38.8-21.15,4.87-4.09-3.91-7.24-4.85-19.12-4.85H17.83v-23.91h14.52c1.44-.05,2.61.31,3.43.73.57.31,1.67,1.01,2.4,2.08,1.01,1.35,9.63,13.95,9.63,13.95h24.85s2.31-4.74,3.67-8.11c1.48-3.36.96-5.74-2.07-5.96-2.65-.2-4.23.41-4.53,1.5l-1.1-3.77c-.67-1.91-.19-3.31,2.49-3.31h8.06c0,.08.14-2.6,4.55-2.6h13.33l-3.76,3.43v18.83h25.81s8.19-12.6,9.12-13.95c.77-1.07,1.8-1.77,2.4-2.08.74-.42,1.99-.78,3.43-.78h14.77v23.94Z"/>
  </g>
  <path class="cls-1" d="M72.17,126.94c.98-.34,1.83-1.02,2.32-1.83h.05v5.96c0,.62-.05,1.09.52,1.45v.07h-2.24v-.07c.68-.32.58-.78.58-1.45v-4.1h-1.24v-.03Z"/>
  <path class="cls-1" d="M77.7,132.12c1.69-.35,3.25-1.9,3.25-3.67,0-1.08-.61-2.27-1.84-2.27-.92,0-1.58.72-1.58,1.59,0,.97.66,1.73,1.67,1.73.38,0,.79-.13,1.11-.34l-.73.88c-.28.11-.63.14-.9.14-1.23,0-2.2-.95-2.2-2.18,0-1.55,1.24-2.57,2.75-2.57,1.72,0,2.83,1.31,2.83,2.9,0,1.2-.64,2.37-1.63,3.14-.96.78-2.07,1.15-3.29,1.31l.57-.67Z"/>
  <path class="cls-1" d="M86.18,130.26c-.95,0-1.71,0-2.26-.04l2.26-3.86v3.9ZM86.18,131.14v.27c0,.5.05.9-.51,1.1v.07h2.07v-.07c-.49-.22-.49-.74-.49-1.18v-.19h.87l.49-1.29c-.35.31-.86.41-1.36.41v-4.67h-1.52l-3.28,5.55h3.73Z"/>
  <path class="cls-1" d="M93.75,126.04c-.73.11-1.58.69-2.12,1.12-.74.69-1.15,1.62-1.15,2.61,0,1.1.66,2.26,1.88,2.26.93,0,1.44-.74,1.44-1.62,0-1.05-.51-1.76-1.63-1.76-.41,0-.82.14-1.14.34l.68-.86c.27-.13.56-.21.95-.21,1.34,0,2.26.92,2.26,2.27,0,1.5-1.19,2.55-2.65,2.55-1.67,0-2.84-1.33-2.84-2.96,0-2.54,2.53-4.19,4.82-4.35l-.49.6Z"/>
</svg>