<?xml version="1.0" encoding="UTF-8"?>
<svg id="_레이어_1" data-name="레이어 1" xmlns="http://www.w3.org/2000/svg" xmlns:xlink="http://www.w3.org/1999/xlink" viewBox="0 0 121.17 142.36">
  <defs>
    <style>
      .cls-1 {
        fill: #f8f59e;
      }

      .cls-1, .cls-2, .cls-3, .cls-4, .cls-5, .cls-6, .cls-7, .cls-8, .cls-9, .cls-10, .cls-11, .cls-12, .cls-13, .cls-14 {
        stroke-width: 0px;
      }

      .cls-15 {
        fill: #e6db6c;
      }

      .cls-15, .cls-16, .cls-17, .cls-18, .cls-19, .cls-20, .cls-21, .cls-22, .cls-23, .cls-24 {
        stroke-miterlimit: 10;
      }

      .cls-15, .cls-16, .cls-18, .cls-19, .cls-20, .cls-21, .cls-22, .cls-23 {
        stroke: #d1b62f;
      }

      .cls-16 {
        fill: url(#_무제_그라디언트_470-2);
      }

      .cls-2 {
        fill: #f6ea97;
      }

      .cls-3 {
        fill: url(#_무제_그라디언트_467);
      }

      .cls-4 {
        fill: #b29e16;
      }

      .cls-5 {
        fill: url(#_무제_그라디언트_465);
      }

      .cls-17 {
        stroke: #baad42;
      }

      .cls-17, .cls-21, .cls-24 {
        fill: none;
      }

      .cls-17, .cls-24 {
        stroke-width: .77px;
      }

      .cls-6 {
        fill: #f6ec97;
      }

      .cls-18 {
        fill: url(#_무제_그라디언트_470-4);
      }

      .cls-19 {
        fill: url(#_무제_그라디언트_470-6);
      }

      .cls-7 {
        fill: url(#_무제_그라디언트_468);
      }

      .cls-8 {
        fill: url(#_무제_그라디언트_466);
      }

      .cls-20 {
        fill: url(#_무제_그라디언트_470-3);
      }

      .cls-9 {
        fill: url(#_무제_그라디언트_467-2);
      }

      .cls-22 {
        fill: url(#_무제_그라디언트_470);
      }

      .cls-23 {
        fill: url(#_무제_그라디언트_470-5);
      }

      .cls-24 {
        stroke: #b9ac73;
      }

      .cls-10 {
        fill: url(#_무제_그라디언트_463);
      }

      .cls-11 {
        fill: url(#_무제_그라디언트_471);
      }

      .cls-12 {
        fill: #f7f099;
      }

      .cls-13 {
        fill: url(#_무제_그라디언트_462);
      }

      .cls-14 {
        fill: #f2e48d;
      }
    </style>
    <linearGradient id="_무제_그라디언트_470" data-name="무제 그라디언트 470" x1="98.6" y1="43.77" x2="120.56" y2="43.77" gradientUnits="userSpaceOnUse">
      <stop offset="0" stop-color="#ecdd6e"/>
      <stop offset="1" stop-color="#faf1a1"/>
    </linearGradient>
    <linearGradient id="_무제_그라디언트_470-2" data-name="무제 그라디언트 470" x1="87.2" y1="32.7" x2="120.67" y2="32.7" xlink:href="#_무제_그라디언트_470"/>
    <linearGradient id="_무제_그라디언트_470-3" data-name="무제 그라디언트 470" x1="65.9" y1="23.02" x2="115.8" y2="23.02" xlink:href="#_무제_그라디언트_470"/>
    <linearGradient id="_무제_그라디언트_470-4" data-name="무제 그라디언트 470" x1="6216.27" y1="43.77" x2="6238.23" y2="43.77" gradientTransform="translate(6238.85) rotate(-180) scale(1 -1)" xlink:href="#_무제_그라디언트_470"/>
    <linearGradient id="_무제_그라디언트_470-5" data-name="무제 그라디언트 470" x1="6204.87" y1="32.7" x2="6238.35" y2="32.7" gradientTransform="translate(6238.85) rotate(-180) scale(1 -1)" xlink:href="#_무제_그라디언트_470"/>
    <linearGradient id="_무제_그라디언트_470-6" data-name="무제 그라디언트 470" x1="6183.57" y1="23.02" x2="6233.48" y2="23.02" gradientTransform="translate(6238.85) rotate(-180) scale(1 -1)" xlink:href="#_무제_그라디언트_470"/>
    <linearGradient id="_무제_그라디언트_467" data-name="무제 그라디언트 467" x1="87.2" y1="104.38" x2="87.2" y2="44.64" gradientUnits="userSpaceOnUse">
      <stop offset="0" stop-color="#e1d757"/>
      <stop offset="1" stop-color="#dbbf36"/>
    </linearGradient>
    <linearGradient id="_무제_그라디언트_468" data-name="무제 그라디언트 468" x1="60.85" y1="44.42" x2="111.24" y2="44.42" gradientUnits="userSpaceOnUse">
      <stop offset="0" stop-color="#dcc237"/>
      <stop offset="1" stop-color="#e6d551"/>
    </linearGradient>
    <linearGradient id="_무제_그라디언트_467-2" data-name="무제 그라디언트 467" x1="60.85" y1="104.43" x2="111.82" y2="104.43" xlink:href="#_무제_그라디언트_467"/>
    <linearGradient id="_무제_그라디언트_466" data-name="무제 그라디언트 466" x1="22.92" y1="64.94" x2="66.01" y2="39.74" gradientUnits="userSpaceOnUse">
      <stop offset="0" stop-color="#e9f79d"/>
      <stop offset="1" stop-color="#fff"/>
    </linearGradient>
    <linearGradient id="_무제_그라디언트_465" data-name="무제 그라디언트 465" x1="9.46" y1="104.42" x2="60.85" y2="104.42" gradientUnits="userSpaceOnUse">
      <stop offset="0" stop-color="#dfc34f"/>
      <stop offset="1" stop-color="#ebda76"/>
    </linearGradient>
    <linearGradient id="_무제_그라디언트_471" data-name="무제 그라디언트 471" x1="34.48" y1="43.77" x2="34.48" y2="103.4" gradientUnits="userSpaceOnUse">
      <stop offset="0" stop-color="#ecdd6e"/>
      <stop offset="1" stop-color="#faf882"/>
    </linearGradient>
    <linearGradient id="_무제_그라디언트_463" data-name="무제 그라디언트 463" x1="60.85" y1="51.9" x2="98.26" y2="51.9" gradientUnits="userSpaceOnUse">
      <stop offset="0" stop-color="#efe185"/>
      <stop offset="1" stop-color="#faf4a4"/>
    </linearGradient>
    <linearGradient id="_무제_그라디언트_462" data-name="무제 그라디언트 462" x1="23.73" y1="51.9" x2="60.85" y2="51.9" gradientUnits="userSpaceOnUse">
      <stop offset="0" stop-color="#f9f19f"/>
      <stop offset="1" stop-color="#fff"/>
    </linearGradient>
  </defs>
  <path class="cls-15" d="m116.93,41.2c-1.87-3.51-4.67-6.52-8.22-8.57l-37.06-21.4c-3.28-1.89-7.01-2.89-10.8-2.89h0c-3.79,0-7.52,1-10.8,2.89L12.98,32.63c-3.22,1.86-5.84,4.51-7.69,7.61-1.98,3.3-3.1,7.12-3.1,11.09v47.55c0,2.68.53,5.29,1.47,7.72,1.75,4.55,4.99,8.47,9.33,10.98l37.06,21.4c3.28,1.89,7.01,2.89,10.8,2.89h0c3.78,0,7.52-1,10.8-2.89l37.07-21.4c3.98-2.3,7.03-5.8,8.87-9.88,1.23-2.74,1.93-5.73,1.93-8.82v-47.55c0-3.59-.93-7.05-2.57-10.13Z"/>
  <g>
    <path class="cls-22" d="m99.22,51.91s-2.57-5.13,2.67-8.13l5.24-2.99s7.06-3.64,10.37-6.52,5.67,10.48-2.57,13.9-8.45,8.13-15.72,3.74Z"/>
    <path class="cls-16" d="m88.16,45.11s-3.91-7.82,4.07-12.39l7.99-4.56s10.76-5.54,15.81-9.94,8.64,15.97-3.91,21.19-12.88,12.39-23.96,5.7Z"/>
    <path class="cls-20" d="m67.32,41.52s-5.83-11.66,6.08-18.47l11.91-6.8s16.04-8.26,23.57-14.82c7.53-6.56,12.88,23.81-5.83,31.59-18.71,7.78-19.2,18.47-35.72,8.51Z"/>
  </g>
  <g>
    <path class="cls-18" d="m21.95,51.91s2.57-5.13-2.67-8.13l-5.24-2.99s-7.06-3.64-10.37-6.52c-3.31-2.89-5.67,10.48,2.57,13.9,8.23,3.42,8.45,8.13,15.72,3.74Z"/>
    <path class="cls-23" d="m33.02,45.11s3.91-7.82-4.07-12.39l-7.99-4.56s-10.76-5.54-15.81-9.94C.09,13.81-3.49,34.19,9.06,39.4c12.55,5.22,12.88,12.39,23.96,5.7Z"/>
    <path class="cls-19" d="m53.85,41.52s5.83-11.66-6.08-18.47l-11.91-6.8S19.83,7.98,12.3,1.42C4.76-5.14-.58,25.24,18.13,33.01s19.2,18.47,35.72,8.51Z"/>
  </g>
  <g>
    <path class="cls-3" d="m60.85,73.76l50.97,30.62c1.11-2.46,1.73-5.15,1.73-7.92v-42.72c0-3.23-.84-6.33-2.31-9.1l-50.39,29.09v.03Z"/>
    <polygon class="cls-17" points="60.82 73.75 60.85 73.76 60.85 73.73 60.82 73.75"/>
    <path class="cls-7" d="m111.24,44.64c-1.68-3.16-4.2-5.86-7.39-7.7l-33.3-19.23c-2.95-1.7-6.3-2.6-9.7-2.6h0v58.62l50.39-29.09Z"/>
    <path class="cls-9" d="m60.85,73.76v61.33h0c3.4,0,6.75-.9,9.7-2.6l33.31-19.23c3.58-2.07,6.32-5.21,7.97-8.88l-50.97-30.62Z"/>
    <path class="cls-8" d="m60.85,73.73V15.11c-3.4,0-6.76.9-9.7,2.6l-33.31,19.23c-2.89,1.67-5.24,4.05-6.91,6.84l49.89,29.97h.03Z"/>
    <path class="cls-5" d="m60.82,73.75l-51.36,29.65c1.57,4.09,4.48,7.61,8.38,9.86l33.3,19.23c2.95,1.7,6.3,2.6,9.7,2.6v-61.33l-.03-.02Z"/>
    <path class="cls-11" d="m10.93,43.77c-1.78,2.97-2.79,6.4-2.79,9.97v42.72c0,2.41.48,4.75,1.32,6.94l51.36-29.65L10.93,43.77Z"/>
  </g>
  <path class="cls-4" d="m19.61,51.56v47.08c0,1.52.81,2.93,2.13,3.69l36.97,21.35c1.32.76,2.94.76,4.26,0l36.97-21.35c1.32-.76,2.13-2.17,2.13-3.69v-47.08c0-1.52-.81-2.93-2.13-3.69l-36.97-21.35c-1.32-.76-2.94-.76-4.26,0l-36.97,21.35c-1.32.76-2.13,2.17-2.13,3.69Z"/>
  <g>
    <path class="cls-6" d="m60.85,73.76l37.75,22.68v-42.7c0-.56-.14-1.1-.34-1.6l-37.41,21.6v.03Z"/>
    <path class="cls-10" d="m98.26,52.13c-.36-.93-1-1.74-1.88-2.25l-33.3-19.23c-.68-.39-1.44-.6-2.22-.6,0,0,0,0,0,0v43.67l37.41-21.6Z"/>
    <polygon class="cls-24" points="60.82 73.75 60.85 73.76 60.85 73.73 60.82 73.75"/>
    <path class="cls-14" d="m60.85,73.76v46.37s0,0,0,0c.78,0,1.55-.21,2.22-.6l33.3-19.23c1.37-.79,2.22-2.27,2.22-3.85v-.02l-37.75-22.68Z"/>
    <path class="cls-2" d="m60.82,73.75l-37.72,21.78v.93c0,1.58.85,3.06,2.22,3.85l33.3,19.23c.68.39,1.44.6,2.22.6v-46.37l-.03-.02Z"/>
    <path class="cls-12" d="m23.73,51.46c-.4.68-.64,1.46-.64,2.27v41.79l37.72-21.78-37.09-22.28Z"/>
    <path class="cls-13" d="m60.85,73.73V30.06c-.78,0-1.55.21-2.22.6l-33.3,19.23c-.67.38-1.2.94-1.59,1.58l37.09,22.28h.03Z"/>
  </g>
  <g>
    <path class="cls-1" d="m60.85,73.73v-24.55c-1.23,0-2.47.32-3.58.96l-14.4,8.31c-1.19.69-2.12,1.69-2.74,2.86l20.69,12.43h.03Z"/>
    <path class="cls-1" d="m60.85,73.76l21.46,12.89c.06-.36.09-.73.09-1.1v-20.9c0-1.05-.24-2.06-.66-2.98l-20.89,12.06v.03Z"/>
    <polygon class="cls-1" points="60.82 73.75 60.85 73.76 60.85 73.73 60.82 73.75"/>
    <path class="cls-1" d="m81.73,61.67c-.61-1.32-1.61-2.46-2.91-3.21l-14.4-8.31c-1.11-.64-2.34-.96-3.57-.96v24.55l20.89-12.06Z"/>
    <path class="cls-1" d="m40.13,61.32c-.53,1.01-.84,2.15-.84,3.33v20.9c0,.2.02.4.04.6l21.49-12.4-20.69-12.43Z"/>
    <path class="cls-1" d="m60.85,73.76v27.25c1.23,0,2.47-.32,3.57-.96l14.4-8.31c1.89-1.09,3.15-2.97,3.48-5.09l-21.46-12.89Z"/>
    <path class="cls-1" d="m60.82,73.75l-21.49,12.4c.2,2.32,1.5,4.41,3.53,5.59l14.4,8.31c1.11.64,2.34.96,3.58.96v-27.25l-.03-.02Z"/>
  </g>
  <path class="cls-21" d="m111.24,44.64c-1.68-3.16-4.2-5.86-7.39-7.7l-33.3-19.23c-2.95-1.7-6.3-2.6-9.7-2.6h0c-3.4,0-6.76.9-9.7,2.6l-33.31,19.23c-2.89,1.67-5.24,4.05-6.91,6.84-1.78,2.97-2.79,6.4-2.79,9.97v42.72c0,2.41.48,4.75,1.32,6.94,1.57,4.09,4.48,7.61,8.38,9.86l33.3,19.23c2.95,1.7,6.3,2.6,9.7,2.6h0c3.4,0,6.75-.9,9.7-2.6l33.31-19.23c3.58-2.07,6.32-5.21,7.97-8.88,1.11-2.46,1.73-5.15,1.73-7.92v-42.72c0-3.23-.84-6.33-2.31-9.1Z"/>
  <path class="cls-4" d="m50.4,65.72c.34-.97.83-1.85,1.46-2.62.63-.77,1.38-1.42,2.23-1.94.85-.52,1.79-.92,2.82-1.21,1.03-.28,2.11-.42,3.24-.42,1.49,0,2.86.2,4.09.59,1.23.4,2.29.94,3.18,1.63.88.69,1.57,1.51,2.07,2.45.5.94.75,1.95.75,3.04,0,1.38-.32,2.6-.97,3.67s-1.61,1.82-2.9,2.28c1.29.43,2.38,1.17,3.28,2.23.89,1.05,1.34,2.37,1.34,3.96,0,1.27-.27,2.41-.8,3.43-.53,1.02-1.28,1.89-2.24,2.6-.96.71-2.11,1.26-3.45,1.63-1.34.37-2.8.56-4.38.56-1.13,0-2.23-.12-3.28-.36-1.05-.24-2.03-.6-2.92-1.09-.9-.49-1.69-1.1-2.4-1.85-.7-.75-1.27-1.64-1.7-2.68l4.52-2.17c.18.61.46,1.17.85,1.67.38.5.83.92,1.34,1.26.51.34,1.06.61,1.65.8.59.19,1.19.29,1.8.29,1.63,0,2.98-.33,4.04-1,1.06-.67,1.6-1.68,1.6-3.04,0-.75-.15-1.37-.46-1.87s-.72-.9-1.24-1.21-1.12-.53-1.8-.66c-.68-.14-1.39-.2-2.14-.2h-2.58v-4.15h2.58c.63,0,1.25-.06,1.83-.19.59-.12,1.11-.33,1.56-.61.45-.28.82-.66,1.09-1.12.27-.46.41-1.05.41-1.75,0-1.27-.48-2.25-1.43-2.94-.95-.69-2.15-1.04-3.6-1.04-1.16,0-2.19.39-3.09,1.16-.91.77-1.59,1.74-2.04,2.92l-4.31-2.04Z"/>
</svg>
