<?xml version="1.0" encoding="UTF-8"?>
<svg id="_레이어_1" data-name="레이어 1" xmlns="http://www.w3.org/2000/svg" xmlns:xlink="http://www.w3.org/1999/xlink" viewBox="0 0 121.33 142.55">
  <defs>
    <style>
      .cls-1 {
        fill: #e4e8f3;
      }

      .cls-1, .cls-2, .cls-3, .cls-4, .cls-5, .cls-6, .cls-7, .cls-8, .cls-9, .cls-10, .cls-11, .cls-12, .cls-13, .cls-14 {
        stroke-width: 0px;
      }

      .cls-2 {
        fill: url(#_무제_그라디언트_201-2);
      }

      .cls-3 {
        fill: url(#_무제_그라디언트_201);
      }

      .cls-4 {
        fill: #ebedf6;
      }

      .cls-5 {
        fill: url(#_무제_그라디언트_197);
      }

      .cls-15, .cls-16, .cls-17, .cls-18, .cls-19, .cls-20, .cls-21, .cls-22, .cls-23, .cls-24 {
        stroke-miterlimit: 10;
      }

      .cls-15, .cls-16, .cls-17, .cls-18, .cls-19, .cls-20, .cls-23, .cls-24 {
        stroke: #558ec2;
      }

      .cls-15, .cls-21, .cls-22 {
        fill: none;
      }

      .cls-16 {
        fill: url(#_무제_그라디언트_198-4);
      }

      .cls-6 {
        fill: url(#_무제_그라디언트_200);
      }

      .cls-17 {
        fill: url(#_무제_그라디언트_198-5);
      }

      .cls-7 {
        fill: #e5e9f3;
      }

      .cls-8 {
        fill: url(#_무제_그라디언트_202);
      }

      .cls-18 {
        fill: url(#_무제_그라디언트_198-6);
      }

      .cls-9 {
        fill: url(#_무제_그라디언트_196);
      }

      .cls-19 {
        fill: url(#_무제_그라디언트_198);
      }

      .cls-10 {
        fill: #5e8fa3;
      }

      .cls-11 {
        fill: #d8e2ee;
      }

      .cls-20 {
        fill: #a5a7de;
      }

      .cls-12 {
        fill: url(#_무제_그라디언트_198-7);
      }

      .cls-21 {
        stroke: #a4969a;
      }

      .cls-21, .cls-22 {
        stroke-width: .77px;
      }

      .cls-13 {
        fill: #e7eaf4;
      }

      .cls-22 {
        stroke: #a3988b;
      }

      .cls-23 {
        fill: url(#_무제_그라디언트_198-3);
      }

      .cls-14 {
        fill: url(#_무제_그라디언트_199);
      }

      .cls-24 {
        fill: url(#_무제_그라디언트_198-2);
      }
    </style>
    <linearGradient id="_무제_그라디언트_198" data-name="무제 그라디언트 198" x1="98.72" y1="43.83" x2="120.71" y2="43.83" gradientUnits="userSpaceOnUse">
      <stop offset="0" stop-color="#c2c3e6"/>
      <stop offset="1" stop-color="#f2f1f8"/>
    </linearGradient>
    <linearGradient id="_무제_그라디언트_198-2" data-name="무제 그라디언트 198" x1="87.31" y1="32.75" x2="120.83" y2="32.75" xlink:href="#_무제_그라디언트_198"/>
    <linearGradient id="_무제_그라디언트_198-3" data-name="무제 그라디언트 198" x1="65.98" y1="23.05" x2="115.96" y2="23.05" xlink:href="#_무제_그라디언트_198"/>
    <linearGradient id="_무제_그라디언트_198-4" data-name="무제 그라디언트 198" x1="5904.79" y1="43.83" x2="5926.78" y2="43.83" gradientTransform="translate(5927.4) rotate(-180) scale(1 -1)" xlink:href="#_무제_그라디언트_198"/>
    <linearGradient id="_무제_그라디언트_198-5" data-name="무제 그라디언트 198" x1="5893.38" y1="32.75" x2="5926.9" y2="32.75" gradientTransform="translate(5927.4) rotate(-180) scale(1 -1)" xlink:href="#_무제_그라디언트_198"/>
    <linearGradient id="_무제_그라디언트_198-6" data-name="무제 그라디언트 198" x1="5872.05" y1="23.05" x2="5922.02" y2="23.05" gradientTransform="translate(5927.4) rotate(-180) scale(1 -1)" xlink:href="#_무제_그라디언트_198"/>
    <linearGradient id="_무제_그라디언트_201" data-name="무제 그라디언트 201" x1="87.31" y1="104.52" x2="87.31" y2="44.69" gradientUnits="userSpaceOnUse">
      <stop offset="0" stop-color="#8194d7"/>
      <stop offset="1" stop-color="#5f9ad0"/>
    </linearGradient>
    <linearGradient id="_무제_그라디언트_202" data-name="무제 그라디언트 202" x1="60.92" y1="44.48" x2="111.38" y2="44.48" gradientUnits="userSpaceOnUse">
      <stop offset="0" stop-color="#6097d1"/>
      <stop offset="1" stop-color="#a7a7de"/>
    </linearGradient>
    <linearGradient id="_무제_그라디언트_201-2" data-name="무제 그라디언트 201" x1="60.92" y1="104.56" x2="111.96" y2="104.56" xlink:href="#_무제_그라디언트_201"/>
    <linearGradient id="_무제_그라디언트_200" data-name="무제 그라디언트 200" x1="22.94" y1="65.02" x2="66.1" y2="39.79" gradientUnits="userSpaceOnUse">
      <stop offset="0" stop-color="#ebeaf5"/>
      <stop offset="1" stop-color="#fff"/>
    </linearGradient>
    <linearGradient id="_무제_그라디언트_199" data-name="무제 그라디언트 199" x1="9.47" y1="104.55" x2="60.92" y2="104.55" gradientUnits="userSpaceOnUse">
      <stop offset="0" stop-color="#77b1d5"/>
      <stop offset="1" stop-color="#c3c0e5"/>
    </linearGradient>
    <linearGradient id="_무제_그라디언트_198-7" data-name="무제 그라디언트 198" x1="34.52" x2="34.52" y2="103.53" xlink:href="#_무제_그라디언트_198"/>
    <linearGradient id="_무제_그라디언트_197" data-name="무제 그라디언트 197" x1="60.92" y1="51.96" x2="98.38" y2="51.96" gradientUnits="userSpaceOnUse">
      <stop offset="0" stop-color="#cbd7ea"/>
      <stop offset="1" stop-color="#f1f3f8"/>
    </linearGradient>
    <linearGradient id="_무제_그라디언트_196" data-name="무제 그라디언트 196" x1="23.76" y1="51.97" x2="60.92" y2="51.97" gradientUnits="userSpaceOnUse">
      <stop offset="0" stop-color="#edf0f7"/>
      <stop offset="1" stop-color="#fff"/>
    </linearGradient>
  </defs>
  <path class="cls-20" d="m117.08,41.25c-1.87-3.52-4.68-6.53-8.23-8.58l-37.11-21.43c-3.28-1.9-7.02-2.9-10.81-2.9h0c-3.79,0-7.53,1-10.81,2.9L13,32.67c-3.23,1.86-5.84,4.52-7.7,7.62-1.98,3.31-3.1,7.13-3.1,11.11v47.61c0,2.68.53,5.29,1.47,7.73,1.75,4.55,5,8.48,9.34,10.99l37.11,21.43c3.28,1.89,7.02,2.9,10.81,2.9h0c3.79,0,7.53-1,10.81-2.9l37.11-21.43c3.99-2.3,7.04-5.81,8.88-9.89,1.23-2.74,1.93-5.74,1.93-8.83v-47.61c0-3.59-.93-7.06-2.58-10.14Z"/>
  <g>
    <path class="cls-19" d="m99.35,51.98s-2.57-5.14,2.68-8.14l5.25-3s7.07-3.64,10.39-6.53,5.67,10.49-2.57,13.92c-8.24,3.43-8.46,8.14-15.74,3.75Z"/>
    <path class="cls-24" d="m88.27,45.17s-3.92-7.83,4.08-12.4l8-4.57s10.77-5.55,15.83-9.96c5.06-4.41,8.65,15.99-3.92,21.22-12.57,5.22-12.89,12.4-23.99,5.71Z"/>
    <path class="cls-23" d="m67.41,41.57s-5.84-11.68,6.08-18.49l11.92-6.81s16.06-8.27,23.6-14.84,12.9,23.85-5.84,31.63c-18.74,7.79-19.22,18.49-35.77,8.52Z"/>
  </g>
  <g>
    <path class="cls-16" d="m21.98,51.98s2.57-5.14-2.68-8.14l-5.25-3s-7.07-3.64-10.39-6.53c-3.32-2.89-5.67,10.49,2.57,13.92,8.24,3.43,8.46,8.14,15.74,3.75Z"/>
    <path class="cls-17" d="m33.06,45.17s3.92-7.83-4.08-12.4l-8-4.57s-10.77-5.55-15.83-9.96C.09,13.83-3.5,34.23,9.07,39.45c12.57,5.22,12.89,12.4,23.99,5.71Z"/>
    <path class="cls-18" d="m53.92,41.57s5.84-11.68-6.08-18.49l-11.92-6.81S19.85,7.99,12.31,1.42C4.77-5.15-.58,25.27,18.15,33.05c18.74,7.79,19.22,18.49,35.77,8.52Z"/>
  </g>
  <g>
    <path class="cls-3" d="m60.92,73.86l51.04,30.66c1.11-2.46,1.73-5.16,1.73-7.94v-42.78c0-3.23-.84-6.34-2.31-9.11l-50.46,29.13v.03Z"/>
    <polygon class="cls-21" points="60.9 73.84 60.92 73.86 60.92 73.83 60.9 73.84"/>
    <path class="cls-8" d="m111.38,44.69c-1.68-3.16-4.2-5.87-7.4-7.71l-33.34-19.25c-2.95-1.7-6.31-2.6-9.72-2.6h0v58.7l50.46-29.13Z"/>
    <path class="cls-2" d="m60.92,73.86v61.41h0c3.4,0,6.76-.9,9.71-2.6l33.35-19.25c3.58-2.07,6.33-5.22,7.98-8.89l-51.04-30.66Z"/>
    <path class="cls-6" d="m60.92,73.83V15.13c-3.41,0-6.77.9-9.71,2.6l-33.35,19.25c-2.9,1.67-5.25,4.06-6.92,6.85l49.96,30.01h.03Z"/>
    <path class="cls-14" d="m60.9,73.84l-51.43,29.69c1.58,4.09,4.49,7.62,8.39,9.88l33.35,19.25c2.95,1.7,6.31,2.6,9.71,2.6v-61.41l-.03-.02Z"/>
    <path class="cls-12" d="m10.94,43.83c-1.78,2.97-2.79,6.41-2.79,9.98v42.78c0,2.41.48,4.76,1.32,6.95l51.43-29.69L10.94,43.83Z"/>
  </g>
  <path class="cls-10" d="m19.64,51.62v47.15c0,1.52.81,2.93,2.13,3.69l37.03,21.38c1.32.76,2.94.76,4.26,0l37.03-21.38c1.32-.76,2.13-2.17,2.13-3.69v-47.15c0-1.52-.81-2.93-2.13-3.69l-37.03-21.38c-1.32-.76-2.94-.76-4.26,0l-37.03,21.38c-1.32.76-2.13,2.17-2.13,3.69Z"/>
  <g>
    <path class="cls-1" d="m60.92,73.86l37.8,22.71v-42.76c0-.56-.14-1.1-.34-1.61l-37.46,21.63v.03Z"/>
    <path class="cls-5" d="m98.38,52.2c-.36-.93-1-1.74-1.89-2.25l-33.35-19.25c-.68-.39-1.45-.6-2.23-.6,0,0,0,0,0,0v43.73l37.46-21.63Z"/>
    <polygon class="cls-22" points="60.9 73.84 60.92 73.86 60.92 73.83 60.9 73.84"/>
    <path class="cls-11" d="m60.92,73.86v46.43s0,0,0,0c.78,0,1.55-.21,2.23-.6l33.35-19.25c1.37-.79,2.23-2.27,2.23-3.86v-.02l-37.8-22.71Z"/>
    <path class="cls-7" d="m60.9,73.84l-37.77,21.81v.93c0,1.59.85,3.06,2.23,3.86l33.35,19.25c.68.39,1.45.6,2.23.6v-46.43l-.03-.02Z"/>
    <path class="cls-13" d="m23.76,51.53c-.4.68-.64,1.46-.64,2.28v41.84l37.77-21.81-37.14-22.31Z"/>
    <path class="cls-9" d="m60.92,73.83V30.1c-.78,0-1.55.21-2.23.6l-33.35,19.25c-.67.39-1.21.94-1.59,1.58l37.14,22.31h.03Z"/>
  </g>
  <g>
    <path class="cls-4" d="m60.92,73.83v-24.58c-1.24,0-2.47.32-3.58.96l-14.42,8.32c-1.19.69-2.12,1.69-2.74,2.86l20.71,12.44h.03Z"/>
    <path class="cls-4" d="m60.92,73.86l21.48,12.91c.06-.36.09-.73.09-1.11v-20.92c0-1.05-.24-2.06-.66-2.98l-20.92,12.08v.03Z"/>
    <polygon class="cls-4" points="60.9 73.84 60.92 73.86 60.92 73.83 60.9 73.84"/>
    <path class="cls-4" d="m81.84,61.75c-.61-1.33-1.61-2.46-2.92-3.22l-14.42-8.32c-1.11-.64-2.34-.96-3.58-.96v24.58l20.92-12.08Z"/>
    <path class="cls-4" d="m40.18,61.4c-.53,1.01-.84,2.15-.84,3.34v20.92c0,.2.02.4.04.6l21.51-12.42-20.71-12.44Z"/>
    <path class="cls-4" d="m60.92,73.86v27.29c1.24,0,2.47-.32,3.58-.96l14.42-8.33c1.89-1.09,3.15-2.98,3.49-5.09l-21.48-12.91Z"/>
    <path class="cls-4" d="m60.9,73.84l-21.51,12.42c.2,2.32,1.5,4.42,3.54,5.6l14.42,8.32c1.11.64,2.34.96,3.58.96v-27.29l-.03-.02Z"/>
  </g>
  <path class="cls-15" d="m111.38,44.69c-1.68-3.16-4.2-5.87-7.4-7.71l-33.34-19.25c-2.95-1.7-6.31-2.6-9.72-2.6h0c-3.41,0-6.77.9-9.71,2.6l-33.35,19.25c-2.9,1.67-5.25,4.06-6.92,6.85-1.78,2.97-2.79,6.41-2.79,9.98v42.78c0,2.41.48,4.76,1.32,6.95,1.58,4.09,4.49,7.62,8.39,9.88l33.35,19.25c2.95,1.7,6.31,2.6,9.71,2.6h0c3.4,0,6.76-.9,9.71-2.6l33.35-19.25c3.58-2.07,6.33-5.22,7.98-8.89,1.11-2.46,1.73-5.16,1.73-7.94v-42.78c0-3.23-.84-6.34-2.31-9.11Z"/>
  <path class="cls-10" d="m50.94,89.02v-3.13l8.78-7.69c.77-.68,1.48-1.35,2.13-2.01.65-.66,1.21-1.32,1.68-1.97.48-.66.85-1.31,1.12-1.97.27-.66.41-1.32.41-1.97,0-1.41-.4-2.51-1.19-3.32-.79-.8-1.91-1.21-3.33-1.21-1.34,0-2.55.51-3.64,1.51-1.09,1.01-1.93,2.31-2.52,3.89l-4.15-2.28c.39-1.07.9-2.05,1.53-2.94.63-.9,1.4-1.67,2.3-2.31.9-.65,1.92-1.14,3.08-1.5,1.16-.35,2.45-.53,3.88-.53,1.25,0,2.44.18,3.59.53,1.15.35,2.15.88,3.03,1.6.87.71,1.55,1.62,2.04,2.72.49,1.1.71,2.4.66,3.89-.02.79-.2,1.62-.53,2.47s-.77,1.71-1.33,2.57c-.56.86-1.21,1.72-1.96,2.57s-1.56,1.66-2.45,2.43l-5.17,4.52h12.48v4.12h-20.45Z"/>
</svg>
